<svg width="50" height="50" viewBox="0 0 50 50" fill="none" xmlns="http://www.w3.org/2000/svg">
<rect x="0.25" y="0.25" width="49.5" height="49.5" rx="9.75" fill="url(#paint0_linear_126_281)" stroke="#C0C0C0" stroke-width="0.5"/>
<path d="M17.7143 13.1094C16.9514 13.1094 16.2057 13.332 15.5714 13.7492C14.9371 14.1664 14.4427 14.7594 14.1507 15.4532C13.8588 16.147 13.7824 16.9104 13.9313 17.6469C14.0801 18.3834 14.4474 19.06 14.9869 19.591C15.5263 20.122 16.2136 20.4836 16.9618 20.6301C17.71 20.7766 18.4855 20.7014 19.1903 20.414C19.8951 20.1266 20.4975 19.64 20.9214 19.0156C21.3452 18.3912 21.5714 17.6571 21.5714 16.9062C21.5703 15.8996 21.1635 14.9345 20.4404 14.2227C19.7173 13.5109 18.7369 13.1105 17.7143 13.1094ZM17.7143 18.5937C17.3752 18.5937 17.0438 18.4947 16.7619 18.3093C16.48 18.1239 16.2602 17.8603 16.1305 17.552C16.0007 17.2436 15.9668 16.9043 16.0329 16.577C16.0991 16.2496 16.2624 15.949 16.5021 15.713C16.7418 15.477 17.0473 15.3162 17.3798 15.2511C17.7124 15.186 18.0571 15.2194 18.3703 15.3472C18.6835 15.4749 18.9513 15.6912 19.1397 15.9687C19.328 16.2462 19.4286 16.5724 19.4286 16.9062C19.428 17.3536 19.2472 17.7825 18.9258 18.0988C18.6045 18.4152 18.1688 18.5931 17.7143 18.5937ZM27.3571 11C26.3823 11 25.4295 11.2845 24.619 11.8176C23.8085 12.3507 23.1768 13.1084 22.8037 13.9949C22.4307 14.8814 22.3331 15.8569 22.5233 16.798C22.7134 17.7391 23.1828 18.6036 23.8721 19.2821C24.5614 19.9606 25.4396 20.4226 26.3956 20.6098C27.3517 20.797 28.3426 20.7009 29.2432 20.3337C30.1438 19.9665 30.9135 19.3447 31.4551 18.5469C31.9966 17.749 32.2857 16.8111 32.2857 15.8515C32.2842 14.5653 31.7645 13.3321 30.8405 12.4226C29.9165 11.5131 28.6638 11.0015 27.3571 11ZM27.3571 17.9609C26.9333 17.9609 26.519 17.8372 26.1666 17.6054C25.8142 17.3736 25.5396 17.0442 25.3774 16.6587C25.2152 16.2733 25.1728 15.8492 25.2554 15.44C25.3381 15.0308 25.5422 14.655 25.8419 14.36C26.1416 14.065 26.5234 13.8641 26.9391 13.7827C27.3547 13.7013 27.7856 13.7431 28.1772 13.9027C28.5687 14.0624 28.9034 14.3327 29.1388 14.6796C29.3743 15.0265 29.5 15.4343 29.5 15.8515C29.4993 16.4108 29.2734 16.9469 28.8717 17.3424C28.4699 17.7378 27.9252 17.9603 27.3571 17.9609ZM36.5714 22.2943C36.4434 22.2197 36.2977 22.1799 36.149 22.1789C36.0003 22.1779 35.8539 22.2158 35.725 22.2886C35.7179 22.2924 35.711 22.2964 35.7042 22.3007C35.7042 22.3007 33.1651 23.8671 33.1428 23.8671H31.6428V24.7108H32.7143V28.0858H31.6428V28.9295H33.1428C33.1651 28.9295 35.7179 30.5041 35.725 30.5079C35.856 30.58 36.004 30.6169 36.1541 30.6149C36.3042 30.613 36.4511 30.5723 36.5802 30.4969C36.7093 30.4215 36.816 30.3141 36.8897 30.1853C36.9633 30.0566 37.0014 29.9111 37 29.7633V23.0332C37.0011 22.8838 36.9621 22.7367 36.8868 22.6069C36.8116 22.4771 36.7027 22.3693 36.5714 22.2943ZM21.1428 20.2812C21.1428 20.393 21.188 20.5004 21.2684 20.5795C21.3487 20.6586 21.4578 20.703 21.5714 20.703H23.2857C23.3994 20.703 23.5084 20.6586 23.5887 20.5795C23.6691 20.5004 23.7143 20.393 23.7143 20.2812C23.7143 20.1693 23.6691 20.062 23.5887 19.9829C23.5084 19.9037 23.3994 19.8593 23.2857 19.8593H21.5714C21.4578 19.8593 21.3487 19.9037 21.2684 19.9829C21.188 20.062 21.1428 20.1693 21.1428 20.2812ZM29.5 21.5468H15.3571C15.0163 21.5472 14.6895 21.6806 14.4484 21.9179C14.2074 22.1552 14.0718 22.4768 14.0714 22.8124V24.9217H13.4286C13.3149 24.9217 13.2059 24.9662 13.1255 25.0453C13.0452 25.1244 13 25.2317 13 25.3436C13 25.4555 13.0452 25.5628 13.1255 25.6419C13.2059 25.721 13.3149 25.7655 13.4286 25.7655H14.0714V29.9842C14.0718 30.3197 14.2074 30.6414 14.4484 30.8787C14.6895 31.1159 15.0163 31.2494 15.3571 31.2498H18.5714V31.6717C18.5718 32.0072 18.7074 32.3289 18.9484 32.5662C19.1895 32.8034 19.5163 32.9369 19.8571 32.9373H22V33.5416L18.3685 37.2868C18.3296 37.3269 18.2992 37.3741 18.2788 37.4258C18.2585 37.4774 18.2487 37.5325 18.2501 37.5879C18.2514 37.6433 18.2638 37.6979 18.2865 37.7486C18.3092 37.7993 18.3419 37.845 18.3826 37.8833C18.4234 37.9216 18.4713 37.9515 18.5238 37.9715C18.5763 37.9915 18.6323 38.0012 18.6886 37.9999C18.7448 37.9986 18.8003 37.9864 18.8518 37.964C18.9033 37.9416 18.9498 37.9095 18.9886 37.8694L22 34.7636V37.5779C22 37.6898 22.0451 37.7971 22.1255 37.8762C22.2059 37.9553 22.3149 37.9997 22.4286 37.9997C22.5422 37.9997 22.6512 37.9553 22.7316 37.8762C22.812 37.7971 22.8571 37.6898 22.8571 37.5779V34.7636L25.8685 37.8692C25.947 37.9501 26.0549 37.9971 26.1685 37.9997C26.2822 38.0023 26.3922 37.9603 26.4745 37.8831C26.5567 37.8058 26.6044 37.6996 26.6071 37.5877C26.6097 37.4758 26.5671 37.3675 26.4886 37.2866L22.8571 33.5416V32.9373H25C25.3409 32.9369 25.6676 32.8034 25.9087 32.5662C26.1497 32.3289 26.2853 32.0072 26.2857 31.6717V31.2498H29.5C29.8408 31.2494 30.1676 31.1159 30.4087 30.8787C30.6497 30.6414 30.7853 30.3197 30.7857 29.9842V22.8124C30.7853 22.4768 30.6497 22.1552 30.4087 21.9179C30.1676 21.6806 29.8408 21.5472 29.5 21.5468ZM16.6429 29.1404C16.5581 29.1404 16.4752 29.1157 16.4048 29.0693C16.3343 29.023 16.2793 28.9571 16.2469 28.88C16.2145 28.8029 16.206 28.7181 16.2225 28.6363C16.2391 28.5544 16.2799 28.4793 16.3398 28.4203C16.3997 28.3613 16.4761 28.3211 16.5592 28.3048C16.6424 28.2885 16.7285 28.2969 16.8069 28.3288C16.8852 28.3607 16.9521 28.4148 16.9992 28.4842C17.0463 28.5536 17.0714 28.6351 17.0714 28.7186C17.0714 28.8305 17.0263 28.9378 16.9459 29.0169C16.8655 29.096 16.7565 29.1404 16.6429 29.1404ZM18.3571 29.1404C18.2724 29.1404 18.1895 29.1157 18.119 29.0693C18.0486 29.023 17.9936 28.9571 17.9612 28.88C17.9287 28.8029 17.9203 28.7181 17.9368 28.6363C17.9533 28.5544 17.9942 28.4793 18.0541 28.4203C18.114 28.3613 18.1904 28.3211 18.2735 28.3048C18.3567 28.2885 18.4428 28.2969 18.5211 28.3288C18.5995 28.3607 18.6664 28.4148 18.7135 28.4842C18.7606 28.5536 18.7857 28.6351 18.7857 28.7186C18.7857 28.8305 18.7406 28.9378 18.6602 29.0169C18.5798 29.096 18.4708 29.1404 18.3571 29.1404ZM20.0714 28.2967C20.1562 28.2967 20.239 28.3214 20.3095 28.3678C20.38 28.4142 20.4349 28.48 20.4674 28.5571C20.4998 28.6342 20.5083 28.719 20.4918 28.8009C20.4752 28.8827 20.4344 28.9579 20.3745 29.0169C20.3145 29.0759 20.2382 29.1161 20.155 29.1323C20.0719 29.1486 19.9857 29.1403 19.9074 29.1083C19.8291 29.0764 19.7622 29.0223 19.7151 28.953C19.668 28.8836 19.6428 28.802 19.6428 28.7186C19.6428 28.6067 19.688 28.4994 19.7684 28.4203C19.8487 28.3412 19.9578 28.2967 20.0714 28.2967ZM25.4286 31.6717C25.4284 31.7835 25.3832 31.8908 25.3029 31.9699C25.2226 32.0489 25.1136 32.0934 25 32.0935H19.8571C19.7435 32.0934 19.6346 32.0489 19.5542 31.9699C19.4739 31.8908 19.4287 31.7835 19.4286 31.6717V31.2498H25.4286V31.6717Z" fill="white"/>
<defs>
<linearGradient id="paint0_linear_126_281" x1="25" y1="0" x2="25" y2="50" gradientUnits="userSpaceOnUse">
<stop stop-color="#D62F2A"/>
<stop offset="1" stop-color="#F56151"/>
</linearGradient>
</defs>
</svg>
