<svg width="146" height="53" viewBox="0 0 146 53" fill="none" xmlns="http://www.w3.org/2000/svg">
<rect x="0.25" y="0.25" width="145.5" height="52.5" rx="9.75" fill="url(#paint0_linear_180_931)" stroke="#C0C0C0" stroke-width="0.5"/>
<path d="M85.8398 23H89.3998L86.1798 18.44C87.5198 17.88 88.1198 16.76 88.1198 15.1V13.46C88.1198 10.96 86.9198 9.68 83.6798 9.68H78.1398V23H81.1398V18.86H82.8998L85.8398 23ZM85.1198 14.8C85.1198 15.8 84.7998 16.26 83.5198 16.26H81.1398V12.34H83.5198C84.7398 12.34 85.1198 12.74 85.1198 13.74V14.8ZM98.6114 19.14V17.1C98.6114 14.98 97.9114 13.06 94.6714 13.06C91.4314 13.06 90.4914 14.86 90.4914 16.96V19.24C90.4914 21.64 91.6914 23.2 94.8514 23.2C96.2114 23.2 97.6314 22.9 98.5114 22.58L98.0914 20.42C97.2314 20.68 96.0314 20.84 95.1314 20.84C93.8114 20.84 93.3714 20.54 93.3714 19.42V19.14H98.6114ZM95.8914 16.98H93.3714V16.56C93.3714 15.88 93.6914 15.32 94.6914 15.32C95.6914 15.32 95.8914 15.88 95.8914 16.56V16.98ZM100.218 19.6C100.218 21.98 101.318 23.2 103.298 23.2C104.358 23.2 105.618 22.66 106.298 22.22L106.598 23H108.858V8.88L105.978 9.28V13.34C105.318 13.18 104.298 13.06 103.498 13.06C101.218 13.06 100.218 14.36 100.218 16.66V19.6ZM105.978 19.94C105.558 20.3 104.798 20.7 104.138 20.7C103.378 20.7 103.098 20.28 103.098 19.6V16.66C103.098 16.02 103.378 15.56 104.138 15.56C104.738 15.56 105.478 15.68 105.978 15.8V19.94ZM70.0586 31.04C70.0586 29.88 70.4386 29.2 71.9186 29.2C72.8786 29.2 74.1986 29.32 75.3586 29.52L75.7786 26.9C74.4586 26.62 73.2586 26.48 71.9186 26.48C68.5586 26.48 67.0586 28.14 67.0586 30.56V36.12C67.0586 38.54 68.5586 40.2 71.9186 40.2C73.2586 40.2 74.4586 40.06 75.7786 39.78L75.3586 37.16C74.1986 37.36 72.8786 37.48 71.9186 37.48C70.4386 37.48 70.0586 36.8 70.0586 35.64V31.04ZM85.2706 40V33.78C85.2706 31.08 84.5306 30.06 81.1506 30.06C80.0306 30.06 78.5706 30.26 77.6506 30.54L78.0306 32.7C78.9506 32.52 79.8106 32.42 80.6706 32.42C82.2106 32.42 82.3906 32.76 82.3906 33.76V34.5H80.2906C78.2906 34.5 77.3906 35.28 77.3906 37.24C77.3906 38.9 78.1306 40.2 79.9306 40.2C80.5906 40.2 81.5906 40 82.7106 39.38L82.9106 40H85.2706ZM82.3906 37.62C81.9506 37.82 81.5306 37.96 80.9306 37.96C80.3706 37.96 80.1506 37.74 80.1506 37.2C80.1506 36.66 80.3906 36.5 81.0106 36.5H82.3906V37.62ZM93.1311 32.78L92.8911 30.06C92.1111 30.22 90.8711 30.8 90.2711 31.2L90.0711 30.26H87.6711V40H90.5511V34.06C91.1711 33.62 92.2711 33.12 93.1311 32.78ZM103.206 33.66C103.206 31.28 102.106 30.06 100.126 30.06C99.0656 30.06 97.8056 30.6 97.1256 31.04L96.8256 30.26H94.5656V44.34L97.4456 43.94V39.92C98.1056 40.08 99.1256 40.2 99.9256 40.2C102.206 40.2 103.206 38.9 103.206 36.6V33.66ZM97.4456 33.32C97.8656 32.96 98.6256 32.56 99.2856 32.56C100.046 32.56 100.326 32.98 100.326 33.66V36.6C100.326 37.24 100.046 37.7 99.2856 37.7C98.6856 37.7 97.9456 37.58 97.4456 37.46V33.32ZM112.928 36.14V34.1C112.928 31.98 112.228 30.06 108.988 30.06C105.748 30.06 104.808 31.86 104.808 33.96V36.24C104.808 38.64 106.008 40.2 109.168 40.2C110.528 40.2 111.948 39.9 112.828 39.58L112.408 37.42C111.548 37.68 110.348 37.84 109.448 37.84C108.128 37.84 107.688 37.54 107.688 36.42V36.14H112.928ZM110.208 33.98H107.688V33.56C107.688 32.88 108.008 32.32 109.008 32.32C110.008 32.32 110.208 32.88 110.208 33.56V33.98ZM120.374 39.84L120.034 37.66C119.614 37.8 119.154 37.84 118.834 37.84C118.474 37.84 118.234 37.7 118.234 37.3V32.58H120.294L120.454 30.26H118.234V27.52L115.354 27.92V30.26H114.034V32.58H115.354V37.7C115.354 39.5 116.434 40.2 118.294 40.2C118.954 40.2 119.734 40.06 120.374 39.84Z" fill="white"/>
<path d="M26.0909 11.7424C25.1053 11.7424 24.1418 12.032 23.3222 12.5744C22.5027 13.1168 21.864 13.8878 21.4868 14.7898C21.1096 15.6918 21.0109 16.6843 21.2032 17.6419C21.3955 18.5995 21.8701 19.479 22.5671 20.1694C23.264 20.8598 24.152 21.3299 25.1187 21.5204C26.0854 21.7109 27.0874 21.6131 27.998 21.2395C28.9086 20.8659 29.6869 20.2332 30.2345 19.4214C30.7821 18.6096 31.0744 17.6552 31.0744 16.6789C31.0729 15.3701 30.5474 14.1153 29.6131 13.1899C28.6789 12.2644 27.4121 11.7439 26.0909 11.7424ZM26.0909 18.8728C25.6528 18.8728 25.2246 18.7441 24.8604 18.5031C24.4961 18.262 24.2123 17.9193 24.0446 17.5184C23.877 17.1176 23.8331 16.6764 23.9186 16.2508C24.004 15.8252 24.215 15.4343 24.5247 15.1275C24.8345 14.8207 25.2292 14.6117 25.6588 14.5271C26.0884 14.4424 26.5338 14.4858 26.9385 14.6519C27.3432 14.818 27.6891 15.0992 27.9325 15.46C28.1759 15.8207 28.3058 16.2449 28.3058 16.6789C28.305 17.2605 28.0714 17.8181 27.6562 18.2294C27.241 18.6407 26.6781 18.8721 26.0909 18.8728ZM38.5495 9C37.2901 9 36.059 9.36994 35.0118 10.063C33.9646 10.7561 33.1485 11.7412 32.6665 12.8938C32.1845 14.0464 32.0584 15.3146 32.3041 16.5382C32.5498 17.7617 33.1563 18.8857 34.0469 19.7678C34.9374 20.6499 36.072 21.2507 37.3073 21.4941C38.5425 21.7374 39.8228 21.6125 40.9864 21.1351C42.1499 20.6577 43.1444 19.8492 43.8441 18.812C44.5438 17.7747 44.9173 16.5552 44.9173 15.3076C44.9154 13.6353 44.2439 12.032 43.0501 10.8495C41.8563 9.66705 40.2378 9.00189 38.5495 9ZM38.5495 18.0501C38.002 18.0501 37.4667 17.8892 37.0114 17.5879C36.5561 17.2865 36.2013 16.8582 35.9917 16.3571C35.7822 15.856 35.7273 15.3046 35.8342 14.7726C35.941 14.2406 36.2047 13.752 36.5919 13.3684C36.9791 12.9849 37.4724 12.7237 38.0094 12.6179C38.5465 12.5121 39.1031 12.5664 39.609 12.7739C40.1149 12.9815 40.5473 13.333 40.8515 13.784C41.1558 14.235 41.3181 14.7652 41.3181 15.3076C41.3173 16.0347 41.0254 16.7318 40.5063 17.2459C39.9873 17.7601 39.2836 18.0493 38.5495 18.0501ZM50.4545 23.6842C50.2892 23.5872 50.1008 23.5354 49.9087 23.5341C49.7166 23.5328 49.5275 23.582 49.3609 23.6768C49.3518 23.6817 49.3428 23.6869 49.334 23.6924C49.334 23.6924 46.0535 25.7289 46.0247 25.7289H44.0867V26.8259H45.471V31.2138H44.0867V32.3108H46.0247C46.0535 32.3108 49.3517 34.358 49.3609 34.363C49.5302 34.4566 49.7214 34.5046 49.9153 34.5021C50.1092 34.4996 50.2991 34.4467 50.4659 34.3486C50.6327 34.2506 50.7705 34.1109 50.8657 33.9436C50.9609 33.7762 51.01 33.587 51.0082 33.3949V24.6448C51.0097 24.4505 50.9593 24.2593 50.862 24.0906C50.7648 23.9218 50.6242 23.7816 50.4545 23.6842ZM30.5206 21.0668C30.5206 21.2122 30.579 21.3517 30.6828 21.4546C30.7867 21.5575 30.9275 21.6153 31.0744 21.6153H33.2892C33.4361 21.6153 33.5769 21.5575 33.6808 21.4546C33.7846 21.3517 33.8429 21.2122 33.8429 21.0668C33.8429 20.9213 33.7846 20.7818 33.6808 20.6789C33.5769 20.5761 33.4361 20.5183 33.2892 20.5183H31.0744C30.9275 20.5183 30.7867 20.5761 30.6828 20.6789C30.579 20.7818 30.5206 20.9213 30.5206 21.0668ZM41.3181 22.7122H23.0454C22.605 22.7127 22.1828 22.8863 21.8714 23.1947C21.56 23.5032 21.3848 23.9215 21.3843 24.3577V27.1002H20.5537C20.4069 27.1002 20.266 27.1579 20.1622 27.2608C20.0583 27.3637 20 27.5032 20 27.6486C20 27.7941 20.0583 27.9336 20.1622 28.0365C20.266 28.1393 20.4069 28.1971 20.5537 28.1971H21.3843V33.682C21.3848 34.1183 21.56 34.5365 21.8714 34.845C22.1828 35.1535 22.605 35.327 23.0454 35.3275H27.1983V35.876C27.1988 36.3122 27.374 36.7305 27.6854 37.0389C27.9969 37.3474 28.4191 37.5209 28.8595 37.5215H31.6281V38.3072L26.9361 43.1764C26.8859 43.2285 26.8466 43.2899 26.8203 43.3571C26.7941 43.4242 26.7814 43.4959 26.7831 43.5679C26.7848 43.6399 26.8008 43.7109 26.8302 43.7768C26.8596 43.8427 26.9018 43.9022 26.9544 43.9519C27.007 44.0017 27.069 44.0407 27.1368 44.0667C27.2047 44.0927 27.277 44.1052 27.3497 44.1035C27.4224 44.1018 27.494 44.086 27.5606 44.0569C27.6271 44.0278 27.6872 43.986 27.7374 43.9338L31.6281 39.8959V43.5548C31.6281 43.7003 31.6864 43.8398 31.7903 43.9427C31.8941 44.0455 32.0349 44.1033 32.1818 44.1033C32.3286 44.1033 32.4695 44.0455 32.5733 43.9427C32.6772 43.8398 32.7355 43.7003 32.7355 43.5548V39.8959L36.6262 43.9336C36.7276 44.0388 36.8671 44.0998 37.0139 44.1032C37.1607 44.1066 37.3029 44.0521 37.4092 43.9517C37.5154 43.8512 37.577 43.7131 37.5805 43.5676C37.5839 43.4222 37.5288 43.2814 37.4274 43.1761L32.7355 38.3072V37.5215H35.5041C35.9445 37.5209 36.3667 37.3474 36.6781 37.0389C36.9896 36.7305 37.1647 36.3122 37.1652 35.876V35.3275H41.3181C41.7585 35.327 42.1808 35.1535 42.4922 34.845C42.8036 34.5365 42.9788 34.1183 42.9793 33.682V24.3577C42.9788 23.9215 42.8036 23.5032 42.4922 23.1947C42.1808 22.8863 41.7585 22.7127 41.3181 22.7122ZM24.7066 32.585C24.5971 32.585 24.49 32.5529 24.399 32.4926C24.3079 32.4323 24.2369 32.3467 24.195 32.2465C24.1531 32.1462 24.1422 32.0359 24.1635 31.9296C24.1849 31.8232 24.2376 31.7254 24.3151 31.6487C24.3925 31.572 24.4912 31.5198 24.5986 31.4986C24.706 31.4774 24.8173 31.4883 24.9185 31.5298C25.0197 31.5713 25.1062 31.6416 25.167 31.7318C25.2278 31.822 25.2603 31.9281 25.2603 32.0366C25.2603 32.182 25.202 32.3215 25.0981 32.4244C24.9943 32.5273 24.8535 32.585 24.7066 32.585ZM26.9215 32.585C26.812 32.585 26.7049 32.5529 26.6138 32.4926C26.5228 32.4323 26.4518 32.3467 26.4099 32.2465C26.368 32.1462 26.357 32.0359 26.3784 31.9296C26.3998 31.8232 26.4525 31.7254 26.5299 31.6487C26.6074 31.572 26.706 31.5198 26.8134 31.4986C26.9209 31.4774 27.0322 31.4883 27.1334 31.5298C27.2345 31.5713 27.321 31.6416 27.3819 31.7318C27.4427 31.822 27.4752 31.9281 27.4752 32.0366C27.4752 32.182 27.4169 32.3215 27.313 32.4244C27.2092 32.5273 27.0683 32.585 26.9215 32.585ZM29.1363 31.4881C29.2459 31.4881 29.3529 31.5202 29.444 31.5805C29.535 31.6408 29.606 31.7264 29.6479 31.8267C29.6898 31.9269 29.7008 32.0372 29.6794 32.1436C29.6581 32.25 29.6053 32.3477 29.5279 32.4244C29.4504 32.5011 29.3518 32.5533 29.2444 32.5745C29.137 32.5957 29.0256 32.5848 28.9244 32.5433C28.8233 32.5018 28.7368 32.4315 28.6759 32.3413C28.6151 32.2511 28.5826 32.145 28.5826 32.0366C28.5826 31.8911 28.641 31.7516 28.7448 31.6487C28.8486 31.5459 28.9895 31.4881 29.1363 31.4881ZM36.0578 35.876C36.0577 36.0214 35.9993 36.1608 35.8955 36.2637C35.7917 36.3665 35.6509 36.4243 35.5041 36.4245H28.8595C28.7127 36.4243 28.5719 36.3665 28.4681 36.2637C28.3643 36.1608 28.3059 36.0214 28.3058 35.876V35.3275H36.0578V35.876Z" fill="white"/>
<defs>
<linearGradient id="paint0_linear_180_931" x1="73" y1="0" x2="73" y2="53" gradientUnits="userSpaceOnUse">
<stop stop-color="#D62F2A"/>
<stop offset="1" stop-color="#F56151"/>
</linearGradient>
</defs>
</svg>
